<?xml version="1.0" encoding="UTF-8"?>
<svg id="Layer_2" data-name="Layer 2" xmlns="http://www.w3.org/2000/svg" xmlns:xlink="http://www.w3.org/1999/xlink" viewBox="0 0 359.54 362.02">
  <defs>
    <style>
      .cls-1 {
        fill: none;
        stroke: #fff;
        stroke-miterlimit: 10;
      }

      .cls-2 {
        fill: #df1b01;
      }

      .cls-2, .cls-3, .cls-4, .cls-5, .cls-6, .cls-7 {
        stroke-width: 0px;
      }

      .cls-4 {
        fill: #fff;
      }

      .cls-5 {
        fill: url(#radial-gradient);
      }

      .cls-6 {
        fill: #fcaa0f;
      }

      .cls-7 {
        fill: #3484a8;
      }
    </style>
    <radialGradient id="radial-gradient" cx="177.28" cy="182.87" fx="157.54" fy="60.25" r="174.87" gradientTransform="translate(-.02 -2.44)" gradientUnits="userSpaceOnUse">
      <stop offset=".11" stop-color="#d3c7af"/>
      <stop offset=".34" stop-color="#d1c4ac"/>
      <stop offset=".51" stop-color="#ccbea3"/>
      <stop offset=".65" stop-color="#c3b293"/>
      <stop offset=".78" stop-color="#b6a27e"/>
      <stop offset=".89" stop-color="#a68d62"/>
      <stop offset=".99" stop-color="#967745"/>
    </radialGradient>
  </defs>
  <g id="Layer_1-2" data-name="Layer 1">
    <g>
      <g>
        <circle class="cls-5" cx="178.63" cy="181.51" r="176.68"/>
        <path class="cls-2" d="m340.47,7.48l-19.55,65.29-50.66-41.77c8.26-5.36,19.83-11.7,34.52-16.52,13.85-4.54,26.22-6.33,35.7-7.01Z"/>
        <path class="cls-4" d="m266.53,29.94c8.94,3.78,22.26,10.74,35.16,23.31,9.2,8.97,15.36,18.04,19.4,25.13-10.35,16.64-23.58,35.32-40.37,54.56-20.89,23.94-41.85,42.51-60.05,56.58-19.57-12.27-39.15-24.55-58.72-36.82,10.63-19.64,25.68-43.42,46.78-67.99,20.25-23.59,40.58-41.52,57.81-54.77Z"/>
        <path class="cls-2" d="m166.46,175.74c-25.1,1.97-41.79,9.8-52.81,17.32-17.95,12.23-37.91,35.21-37.91,35.21h0l20.28-6.22c-8.15,6.44-17.66,15.05-27.1,26.24-10.51,12.45-17.91,24.5-23.07,34.41,9.08-3.97,18.17-7.94,27.25-11.9-11.58,10.9-25.54,26.45-37.74,47.4-6.37,10.95-11.11,21.39-14.68,30.76,13.05-5.91,28.52-14.2,44.74-25.86,13.78-9.9,25.01-20.01,33.93-29.1-4.54,9.49-9.08,18.98-13.63,28.47,8.51-4.62,20.06-12.1,31.42-23.83,13.24-13.67,20.87-27.57,25.17-37.08-.77,7.8-1.55,15.59-2.32,23.39,7.86-5.04,24.1-16.98,35.17-38.73,13.84-27.17,10.94-52.63,9.5-61.55-6.07-2.96-12.14-5.93-18.2-8.89Z"/>
        <path class="cls-6" d="m163.58,188.68c-17.81-1.67-28.11,3.88-32.02,6.37-9.72,6.19-20.08,19-24.3,24.23,0,0,0,0,0,0l13.52-4.87c-2.12,1.81-5.08,4.45-8.41,7.84-5.88,5.99-9.84,11.18-13.43,16.06-9.02,12.27-16.82,24.12-21.65,31.65,9.97-7.77,19.95-15.53,29.92-23.3-9.49,10.09-19.33,21.33-29.22,33.78-12.14,15.29-22.55,30.13-31.46,44.04,18.42-12.23,37.9-26.74,57.61-43.96,7.72-6.74,15-13.47,21.85-20.14-2.69,6.28-5.39,12.57-8.08,18.85,5.59-3.33,13.12-8.64,20.36-16.65,8.43-9.34,13.04-18.59,15.57-24.88-.2,5.03-.41,10.06-.61,15.1,4.54-4.26,15.42-15.65,19.13-33.88,2.27-11.11,1-20.5-.26-26.21-2.84-1.34-5.68-2.69-8.52-4.03Z"/>
        <path class="cls-4" d="m165.25,188.82c-9.05-.85-14.29,1.97-16.27,3.24-4.94,3.14-10.21,9.66-12.35,12.31,0,0,0,0,0,0l6.87-2.48c-1.08.92-2.58,2.26-4.27,3.98-2.99,3.04-5,5.68-6.82,8.16-4.58,6.23-8.55,12.26-11,16.09,5.07-3.95,10.14-7.89,15.21-11.84-4.83,5.13-9.83,10.84-14.85,17.17-6.17,7.77-11.46,15.31-15.99,22.38,9.36-6.22,19.26-13.59,29.28-22.34,3.93-3.43,7.62-6.85,11.11-10.24-1.37,3.19-2.74,6.39-4.11,9.58,2.84-1.69,6.67-4.39,10.35-8.46,4.28-4.75,6.63-9.45,7.91-12.64-.1,2.56-.21,5.12-.31,7.67,2.31-2.17,7.84-7.95,9.72-17.22,1.15-5.65.51-10.42-.13-13.32-1.44-.68-2.89-1.37-4.33-2.05Z"/>
        <polygon class="cls-2" points="196.05 91.23 143.61 115.21 107.46 172.09 163.86 146.6 196.05 91.23"/>
        <path class="cls-2" d="m260.65,154.79c-3.7.52-50.39,44.42-50.39,44.42l-20.51,51.83,56.95-44s22.78-56.34,18.36-54.3l-4.42,2.04Z"/>
        <polygon class="cls-2" points="224.72 128.35 183.63 160.56 147.3 211.52 192.04 177.59 228.66 131.9 224.72 128.35"/>
        <circle class="cls-7" cx="262.58" cy="87.03" r="17.83"/>
        <path class="cls-1" d="m254.39,79.59l6.14-3.59c-1.98,1.3-4.16,2.28-6.14,3.59Z"/>
        <path class="cls-1" d="m260.45,80.99l6.05-3.27c-.93.47-5.12,2.8-6.05,3.27Z"/>
        <path class="cls-1" d="m268.37,80.49c.64.15,1.33.05,1.9-.26-1.37.68-2.74,1.36-4.12,2.04,1.36-.22,2.73-.44,4.09-.66-.8.37-1.6.74-2.4,1.11"/>
        <path class="cls-1" d="m262.82,77.34l-6.02,3.32"/>
        <path class="cls-1" d="m260.53,82.07l5.48-3c-1.38.81-4.1,2.19-5.48,3Z"/>
        <path class="cls-4" d="m327.12,13.55c-6.85,2.44-13.51,5.38-19.82,8.97-6.23,3.77-12.22,7.76-18.81,10.93,0,0-.19-.23-.19-.23,4.7-5.85,11.09-9.9,17.9-12.83,6.67-3.11,13.66-5.55,20.84-7.12,0,0,.08.29.08.29h0Z"/>
        <path class="cls-4" d="m188.43,95.81c-12.6,8-25.79,15-39.1,21.72,0,0,.96-.84.96-.84-5.58,8.57-11.36,17-17.34,25.3-6.05,8.28-12.15,16.5-18.84,24.29,4.67-9.15,9.95-17.92,15.31-26.66,5.53-8.88,11.26-17.62,17.2-26.22,13.69-6.42,27.53-12.55,41.8-17.59h0Z"/>
        <path class="cls-4" d="m224.72,128.35c-13.38,11.54-26.3,22.88-38.1,35.83-11.92,12.85-22.15,26.65-32.54,40.94,9.73-33.94,37.67-64.21,70.64-76.77h0Z"/>
        <path class="cls-7" d="m249.57,121.04c5.71,5.83,13.82,9.05,17.87,17.11-1.06-.62-1.79-1.05-2.13-1.25-.23,1.45-.46,2.89-.72,4.51-.88-.94-1.64-1.74-2.74-2.9.4,1.33.67,2.22.94,3.11-.22.12-.44.25-.66.37-4.73-6.1-9.45-12.2-14.18-18.3.18-.17.36-.34.55-.51,3.89,3.99,7.78,7.97,11.67,11.96.12-.09.23-.19.35-.28-3.65-4.61-7.31-9.21-10.96-13.82Z"/>
        <path class="cls-7" d="m296.07,56.39c2.4,1.91,4.87,3.75,7.19,5.77,2.33,2.02,4.5,4.22,7.14,5.96-5.85-5.88-11.69-11.76-17.54-17.65l.57-.56c8.58,7.3,16.96,14.81,23.67,23.6-.36,1.25-.67,2.29-.83,2.87-6.71-6.31-13.71-12.88-20.7-19.46.17-.17.33-.35.5-.52Z"/>
        <path class="cls-7" d="m271.82,134.9c-4.06-3.64-8.12-7.28-12.17-10.93-.04.05-.08.1-.12.14,3.77,4.49,7.55,8.99,11.32,13.48-.26.27-.51.55-.77.82-.63-.39-1.45-.64-1.88-1.19-4.08-5.22-8.1-10.49-12.13-15.75-1.06-1.38-2.1-2.77-2.96-4.44,1.87,1.45,3.74,2.9,5.6,4.36.13-.11.26-.23.39-.34-1.06-1.58-2.11-3.17-3.17-4.75.1-.08.2-.17.3-.25,5.48,5.98,10.96,11.95,16.44,17.93-.29.3-.58.61-.86.91Z"/>
        <path class="cls-7" d="m226.43,162.81c1.14,2.19,2.37,4.33,3.37,6.58.49,1.09,1.5,2.52-.67,3.29-.34.12-.35,1.19-.74,2.65-3.58-4.05-5.28-8.61-7.7-12.76,1,1.11,2,2.22,3,3.34.12-.07.23-.15.35-.22-2.23-3.41-4.45-6.83-6.68-10.24.16-.12.31-.24.47-.36,2.93,3.57,5.86,7.15,8.78,10.72-.17-1.19-.36-2.42-.54-3.66.12.22.24.45.36.67Z"/>
        <path class="cls-7" d="m312.93,85.81c-5.63-4.84-11.15-9.58-16.67-14.33.06-.09.12-.18.17-.28.68.44,1.36.88,2.04,1.31.11-.1.21-.21.32-.31-2.66-2.84-5.32-5.68-8.09-8.64,4.93,2.17,21.61,18.81,22.24,22.25Z"/>
        <path class="cls-7" d="m221.07,179.27c-1.33-1.2-2.67-2.41-4.05-3.66-.39.5-.84,1.07-1.3,1.66.32.62.62,1.23.93,1.83-4.26-2.24-6.21-6.22-8.03-10.35,1.17,1.22,2.34,2.45,3.99,4.18-.43-1.27-.64-1.9-1.05-3.09,1.21,1.33,2.07,2.28,2.93,3.23.15-.09.31-.18.46-.27-1.55-2.7-3.11-5.4-4.66-8.1.08-.05.16-.11.24-.16,3.83,4.59,7.66,9.17,11.49,13.76-.32.32-.64.65-.96.97Z"/>
        <path class="cls-7" d="m218.36,164.08c2.59,3.47,5.19,6.94,7.7,10.31-.91,1.13-1.47,1.82-2.4,2.98-3.87-4.35-7.31-8.85-9.79-14.15,2.58,2.95,5.17,5.9,7.75,8.85.13-.09.27-.18.4-.28-1.38-2.44-2.77-4.88-4.15-7.32.16-.13.33-.25.49-.38Z"/>
        <path class="cls-7" d="m310.61,91.36c-6.24-7.08-12.47-14.16-19.16-21.76,3.82,1.61,18.33,17.55,19.76,21.24-.2.17-.4.34-.6.51Z"/>
        <path class="cls-7" d="m239.93,133.4c1.47,1.78,2.93,3.56,4.4,5.33,3.03,3.66,6.1,7.29,9.06,11,.48.61.48,1.6.7,2.42-.7-.38-1.62-.58-2.07-1.15-4.36-5.64-8.64-11.34-12.95-17.03.28-.19.57-.38.85-.57Z"/>
        <path class="cls-7" d="m243.31,127.95c4.67,5.66,9.35,11.32,14.02,16.99-.17.21-.34.42-.52.63-.63-.31-1.41-.47-1.87-.94-4.75-4.93-8.75-10.42-12.15-16.34.17-.11.34-.22.51-.33Z"/>
        <path class="cls-7" d="m251.07,154.8c-1.92-.31-9.37-10.4-12.99-17.59,3.23,2.46,13.09,15.81,12.99,17.59Z"/>
        <path class="cls-7" d="m290.66,79.34c4.83,5.34,9.66,10.69,14.49,16.03-.12.2-.24.39-.36.59-.98-.6-2.18-1.01-2.91-1.84-4.08-4.64-8.04-9.38-12.05-14.09.27-.23.55-.46.82-.69Z"/>
        <path class="cls-7" d="m227.8,148.86c1.39,1.84,2.73,3.73,4.18,5.52,2.05,2.51,4.25,4.9,6.24,7.46.46.59.32,1.64.45,2.48-.71-.37-1.61-.58-2.1-1.15-3.7-4.28-6.89-8.91-8.78-14.31Z"/>
        <path class="cls-7" d="m299.07,65.04c5.23,4.98,11.82,8.69,14.9,15.68-.17.16-.35.33-.52.49-4.94-5.22-9.88-10.43-14.82-15.65.15-.18.29-.35.44-.53Z"/>
        <path class="cls-7" d="m243.04,132.07c2.07,2.49,4.14,4.98,6.21,7.46,1.98,2.37,4,4.71,5.91,7.14.4.51.4,1.33.59,2.01-.65-.27-1.55-.35-1.92-.84-3.85-5.03-7.62-10.12-11.41-15.2.21-.19.41-.38.62-.57Z"/>
        <path class="cls-7" d="m226.43,162.81c-.12-.22-.24-.45-.36-.67-1.62-3.05-3.23-6.11-4.85-9.16.1-.07.2-.15.3-.22,1.31,1.61,2.67,3.19,3.94,4.83,2.19,2.84,4.37,5.7,6.44,8.62.35.49.14,1.37.19,2.07-.64-.33-1.44-.51-1.9-1-1.32-1.42-2.51-2.97-3.75-4.47Z"/>
        <path class="cls-7" d="m262.05,117.98c5.1,3.62,9.44,8,12.92,13.23-5.62-3.09-8.59-8.83-12.92-13.23Z"/>
        <path class="cls-7" d="m277.67,117.51c1.16.75,2.31,1.51,3.93,2.57-2.14-3.24-4-6.04-5.86-8.85.21-.21.42-.42.63-.63,1.17,1.4,2.37,2.78,3.5,4.21,1.19,1.5,2.45,2.96,3.41,4.59.84,1.43,1.3,3.08,1.57,5.01-2.39-2.31-4.78-4.62-7.16-6.93l-.02.03Z"/>
        <path class="cls-7" d="m240.75,161.84c-4.28-4.1-6.82-9.49-9.91-14.47,3.74,4.48,8.19,8.42,10.85,13.71-.31.25-.63.5-.94.75Z"/>
        <path class="cls-7" d="m264.91,115.22c4.45,4.55,8.91,9.1,13.36,13.65-.14.28-.28.56-.42.84-.74-.33-1.68-.48-2.19-1.03-2.01-2.18-3.89-4.48-5.82-6.74-1.8-2.11-3.58-4.23-5.38-6.34.15-.13.29-.26.44-.38Z"/>
        <path class="cls-7" d="m307.06,92.16c-4.69-4.08-7.93-9.42-12.29-14.27,3.56,1.64,11.18,10.39,12.29,14.27Z"/>
        <path class="cls-7" d="m234.24,165.58c-4.12-3.94-6.62-9.01-9.31-13.95.17-.12.33-.24.5-.36,3.31,4.49,6.63,8.97,9.94,13.46-.38.28-.76.57-1.13.85Z"/>
        <path class="cls-7" d="m238.12,143.36c3.33,4.42,6.65,8.84,9.98,13.26-.3.3-.6.6-.9.9-.7-.6-1.58-1.08-2.07-1.82-2.59-3.91-5.08-7.88-7.6-11.83.19-.17.39-.34.58-.52Z"/>
        <path class="cls-7" d="m302.94,99.61c-4.46-3.14-7.31-7.62-9.46-12.69,3.4,4.03,6.8,8.05,10.2,12.08-.24.2-.49.41-.73.61Z"/>
        <path class="cls-7" d="m258.57,144.13c-4.24-4.68-7.08-9.74-10.54-14.31,4.5,3.29,10.76,11.44,10.54,14.31Z"/>
        <path class="cls-7" d="m242.71,159.09c-2.9-4.29-5.79-8.57-8.69-12.86,3.74,2.45,9.45,10.15,9.46,12.32-.26.18-.52.36-.77.54Z"/>
        <path class="cls-7" d="m281.29,106.89c3.53,3.59,7.06,7.19,10.87,11.07-2.7.35-7.89-4.94-10.87-11.07Z"/>
        <path class="cls-7" d="m294.16,111.88c-.7-.32-1.64-.46-2.07-1-2.69-3.41-5.26-6.91-7.87-10.38.18-.15.35-.31.53-.46,3.34,3.69,6.68,7.38,10.03,11.06-.21.26-.41.52-.62.78Z"/>
        <path class="cls-7" d="m211.09,179.37c-1.49-2.58-2.98-5.15-4.46-7.73.17-.11.34-.21.51-.32,2.15,3.56,5.95,5.95,7.48,9.96-.22.21-.43.42-.65.63-.68-.42-1.36-.85-2.04-1.27-.28-.42-.56-.84-.84-1.26Z"/>
        <path class="cls-7" d="m280.9,111.81c2.38,2.2,4.79,4.35,7.08,6.63.38.38.22,1.31.3,1.99-.35.16-.7.31-1.06.47-2.3-2.86-4.6-5.72-6.91-8.58.19-.17.38-.34.58-.51Z"/>
        <path class="cls-7" d="m277.69,117.48c.44.87.8,1.8,1.33,2.6.59.88,1.34,1.64,1.62,2.8-4.01-2.49-5.31-7.45-9.26-9.98.15-.16.29-.33.44-.49,1.95,1.7,3.89,3.4,5.84,5.1,0,0,.02-.03.02-.03Z"/>
        <path class="cls-7" d="m211.09,179.37c.28.42.56.84.84,1.26v2.04c-2.19-.53-5.12-4.6-6.05-8.17,1.8,1.69,3.51,3.28,5.21,4.87Z"/>
        <path class="cls-7" d="m272.76,121.87c.76.47,1.52.95,2.28,1.42.09-.08.19-.15.28-.23-.46-.76-.92-1.52-1.24-2.04,2.22,1.7,4.63,3.56,7.04,5.42-.37.41-.73.82-1.1,1.23-2.5-1.81-4.99-3.62-7.49-5.44.07-.12.15-.24.22-.36Z"/>
        <path class="cls-7" d="m295.4,106.6c-3.44-1.71-4.19-5.54-6.26-8.33.16-.13.32-.26.48-.39,2.19,2.7,4.38,5.39,6.57,8.09-.26.21-.52.42-.79.63Z"/>
        <path class="cls-7" d="m297.22,103.21c-1.95-2.56-3.9-5.12-5.85-7.68l.87-.69c2.03,2.5,4.07,5.01,6.1,7.51-.38.29-.75.57-1.13.86Z"/>
        <path class="cls-7" d="m290.01,112.43c-2.98-1.12-3.72-4.24-5.58-6.36.16-.15.32-.3.48-.45,1.96,2,3.93,3.99,5.89,5.99-.26.27-.53.55-.79.82Z"/>
        <path class="cls-7" d="m205.85,178.29c1.31,1.54,2.62,3.09,4.29,5.05-2.63-.24-3.14-.88-4.29-5.05Z"/>
      </g>
      <path class="cls-3" d="m44.23,300.36c-1.79-2.16-3.58-4.2-5.24-6.33C12.53,259.95-1.09,221.35.07,178.17,1.5,124.52,22.85,79.8,63.45,44.75,90.52,21.38,122.18,7.69,157.73,3.36c39-4.74,75.67,2.6,109.98,21.69,1.61.89,2.6.41,3.89-.33,20.91-11.96,43.23-20.11,66.91-24.51.93-.17,1.92-.28,2.85-.17,3.31.4,4.66,2.03,4.28,5.36-2.09,18.11-6.52,35.64-13.19,52.6-2.04,5.2-4.36,10.29-6.73,15.35-.74,1.59-.69,2.67.34,4.1,14.36,20.02,24.18,42.12,29.36,66.18,20.35,94.62-36.71,187.69-130.33,212.42-33.83,8.93-67.52,7.77-100.88-2.95-19.12-6.14-36.58-15.44-52.65-27.42-1.44-1.07-2.32-1.22-3.85-.04-10.85,8.33-21.93,16.34-34.43,22.03-3.97,1.81-8.19,3.11-12.4,4.29-4.12,1.15-5.53-.44-4.52-4.65,1.84-7.72,5.37-14.73,9.7-21.26,5.25-7.92,10.91-15.57,16.4-23.33.55-.77,1.13-1.52,1.77-2.37Zm248.82-196.63c-2.54,2.86.11,5.36.65,8,1.17-2.77-.25-5.36-.64-8.01.7,1.38,1.39,2.76,2.09,4.15.22-.03.44-.06.66-.09-.25-1.81-.5-3.62-.79-5.72-.87.74-1.41,1.21-1.96,1.67Zm5.04-3.76c.41.69.82,1.39,1.29,2.19,1.85-2.16.66-4.04-.09-6.71-.74,1.56-1.18,2.49-1.62,3.42-2.61,1.51-2.56,3.43.74,6.61-.13-2.24-.22-3.87-.32-5.51Zm27.53,158.9c-.19.65-.39,1.29-.6,2.01,4.58-.74,5.37-1.99,3.96-6.33-.95,1.26-1.84,2.44-2.73,3.62.76-1.57,1.52-3.14,2.45-5.06-1.84.53-3.26.94-4.9,1.41.26,1.76.49,3.38.76,5.23.57-.47.82-.68,1.06-.88ZM79.36,41.81c.19-.4.39-.8.78-1.61-4.11,2.39-4.26,2.54-4.41,4.63,1.36-1.14,2.52-2.11,3.69-3.09-.81,1.24-1.7,2.43-2.41,3.72-.46.84-.65,1.82-1.11,3.15.85-.3,1.09-.33,1.28-.46.8-.51,1.6-1.03,2.37-1.57,1.91-1.34,1.82-3.26-.2-4.78Zm156.55,113.79c-1.41-.33-2.91.93-2.38,2.11.86,1.92,1.95,3.74,3.01,5.73.85-.48,1.51-.86,2.15-1.22-1-2.35-1.93-4.53-2.85-6.71,1.37,1.98,2.75,3.97,4.12,5.95.24,0,.49.02.73.03.08-.69.39-1.45.19-2.05-.65-1.94-1.48-3.81-2.24-5.7,1.36,2.01,2.73,4.03,4.09,6.04l.8-.21c.02-2.89-1.71-5.57-1.54-8.53.86,1.5,1.72,3,2.58,4.49.24-.06.47-.12.71-.18.18-2.87-1.91-5.34-1.8-8.28,1.06,2.17,2.12,4.34,3.18,6.51.17-.08.35-.17.52-.25-.94-3.06-1.88-6.11-2.81-9.17.16-.06.33-.12.49-.18,1.19,2.64,2.38,5.27,3.57,7.91.27-.06.54-.13.8-.19-.78-3.27-1.56-6.54-2.33-9.82l.41-.12c1.19,2.6,2.37,5.19,3.56,7.79l.78-.23c-.75-3.64-1.5-7.28-2.25-10.92.11-.04.22-.07.33-.11,1.2,2.98,2.4,5.96,3.6,8.93,1.4-2.03-.11-3.67-.51-5.42-.45-1.98-1.07-3.92-1.62-5.88.11-.04.22-.07.33-.11,1.42,3.07,2.83,6.15,4.36,9.46,3.54-2.86-.84-5.2-.08-7.85.96,1.83,1.87,3.55,2.77,5.26.28-.06.55-.12.83-.18.68-2.88-1.7-5.54-1.32-8.88,1.19,2.54,2.18,4.67,3.37,7.23,2.19-3.07-.73-5.58.06-8.35.84,1.94,1.59,3.66,2.39,5.5,2.57-1.77-.17-3.66.5-5.46.57,1.19,1.08,2.24,1.64,3.41,3.74-2.35-.26-5.2.81-7.82.63,1.3,1.13,2.47,1.75,3.57.23.41.75.66,1.14.98.24-.51.76-1.06.68-1.52-.23-1.48-.68-2.92-1.05-4.37.12-.05.25-.09.37-.14,1.09,2.31,2.17,4.61,3.44,7.31,2.65-3.12-.34-6.29.89-9.3.76,2.14,1.45,4.07,2.14,6.02,3.53-1.67.39-4.31,1.07-6.64.65,1.49,1.18,2.71,1.77,4.07,2.68-2.24-.42-4.61.69-7,.62,1.5,1.18,2.83,1.73,4.17.23.03.46.05.69.08.22-.94.81-1.98.6-2.82-.89-3.63-2.01-7.21-3.05-10.8h0c.69,1.2,1.48,2.35,2.05,3.6,1.01,2.2,1.88,4.46,2.85,6.79q1.8-1.56,1.19-3.34c-.71-2.1-1.4-4.21-2.11-6.31l.58-.21c1.03,2.39,2.05,4.79,3.08,7.18.75-.97,1.18-2.06,1.1-3.1-.15-2.14-.6-4.26-.86-6.4-.06-.5-.03-1.17.25-1.53,3.26-4.15,6.82-8.1,9.79-12.45,1.45-2.12,4.45-3.71,3.57-6.64.54-.11,1.31-.06,1.45-.33.56-1.09.72-2.43,1.41-3.41.98-1.39,2.41-2.46,3.4-3.85.47-.66.5-1.74.46-2.62-.04-.92-.39-1.84-.73-3.33.85,1.34,1.38,2.17,1.91,3,.27-.06.55-.12.82-.19-.19-1.57-.39-3.15-.61-5,.6.97,1.06,1.74,1.55,2.53,2.56-2.93,2.58-4.66.06-7.54-11.45-13.06-24.33-24.45-39.12-33.64-1.78-1.11-2.99-1.03-4.69.06-15.23,9.69-29.18,20.97-41.9,33.77-23.07,23.19-41.44,49.82-57.07,78.43-.87,1.6-1.69,3.23-2.54,4.85,4.43,2.81,8.7,5.53,12.93,8.22,4.61-4.74,9.08-9.53,13.76-14.1,9.47-9.24,19.81-17.39,31.28-24.03,3.16-1.83,5.45-1.55,7.82.75,2.58,2.5,2.62,3.33.71,7.18-6.47,13.04-14.8,24.82-24.29,35.81-.68.78-1.24,1.66-1.86,2.49.15.13.29.26.44.38,2.68-1.86,5.36-3.71,7.97-5.53-.5.97-1.01,1.94-1.51,2.91.13.08.27.16.4.25,2.26-1.26,4.51-2.53,6.77-3.79-.9,1.1-1.57,2.19.29,3.21.53-.45,1.06-.89,1.59-1.34-.32-.62-.54-1.12-.83-1.58-.16-.25-.44-.43-.67-.65.09-.29.17-.58.3-1.02.72.99,1.34,1.84,2.02,2.76,1.32-.95,2.81-1.53,3.39-2.6.54-1.01.12-2.55.12-3.71.47.66,1.07,1.47,1.74,2.4,3.35-2.84,6.58-5.57,9.87-8.36.14.5.27.95.4,1.4-1.66-.53-2.36.21-2.33,2.46Zm85.2,100.37c-.31-.35-.62-1.01-.93-1.01-1,0-2,.25-3.41.47.55,1.83,1.05,3.48,1.54,5.12-.09.64-.19,1.27-.33,2.21,1.81-.38,3.23-.6,4.58-1.01.45-.14,1.08-.83,1.05-1.23-.13-1.92-.45-3.83-.75-6.09-.83.73-1.3,1.14-1.76,1.54Zm22.07-57.61c.06.5.12,1.01.19,1.59,3.83-2.7,3.95-3,2.73-7.24-.77.9-1.58,1.55-1.99,2.38-.5,1.03-.68,2.23-1,3.35v-3.92c.44-1.66,1.01-3.83,1.74-6.6-1.78,1.15-2.95,1.91-4.13,2.67,2.5-2.41,4.77-4.75,4.8-8.48.07.96.15,1.91.23,2.99,2.32-1.49,3.71-3.13,2.84-5.84-.14-.42-.09-.97.05-1.41.29-.9.7-1.77,1.28-3.2-3.2,1.83-4.17,3.98-4.02,6.71.01.27-.28.56-.43.83v-3.62c-1.46,1.12-2.69,2.06-3.91,3,.64-.99,1.27-1.97,2.15-2.6,2.25-1.62,2.74-3.89,2.37-6.36-.24-1.61.06-2.46,1.55-3.35,1.15-.69,2.49-2.25,2.51-3.43.08-5.9.5-11.94-.58-17.67-4.41-23.4-13.58-44.9-27.09-64.53-.31-.45-.67-.86-1.09-1.4-.41.65-.78,1.16-1.08,1.71-12.3,22.31-28.05,41.95-46.26,59.67-1.68,1.64-2.83,3.32-3.6,5.81-5.61,18.08-11.59,36.04-17.58,54-1.33,3.97-3.08,7.41-7.17,9.93-6.02,3.7-11.28,8.62-16.84,13.06-12.43,9.92-24.85,19.85-37.28,29.78-1.57,1.26-3.27,2.28-5.16.7-1.84-1.54-1.19-3.29-.38-5.21,5.11-12.14,10.29-24.26,15.07-36.54,2.54-6.51,4.31-13.32,6.51-20.25-1.11.08-1.92-.08-2.5.22-3.57,1.81-6.26.23-8.84-2.1-2.34-2.11-4.75-4.13-7.33-6.37,2.65,23.77-2.55,42.97-11.38,59.65-10.36,19.57-34.45,43.17-41.49,44,1.22-5.3,3.16-10.44,3.06-16.34-.5.49-.63.59-.71.72-.3.47-.6.94-.88,1.42-11.11,18.42-25.02,34.14-43.79,45.09-2.23,1.3-1.13,2.67-.47,4.69.92-.7,1.6-1.22,2.37-1.8,3.73,1.36,7.71-.4,11.97-.53-.41-.8-.63-1.23-.54-1.05,1.74.13,3.72.53,5.65.36,5.23-.49,10.43-1.22,15.64-1.86.03.18.07.37.1.55-5.37,1.21-10.74,2.42-16.27,3.66,4.11,3.38,2.27,3.14,8.82,2.15.92,2.71,3.15,0,4.46,1.19-1.25.32-2.5.65-3.73.97.62,4.09.93,4.3,4.14,2.93v-2.99c.13,0,.26-.01.39-.02.29,1.02.58,2.04.91,3.19,1.09-.18,2.08-.34,3.26-.54v-3.48c.48,1.45.78,2.33,1.09,3.28,4.64-.57,9.14-1.13,13.64-1.68.01.11.03.22.04.33-2.59.62-5.19,1.25-7.74,1.86.34,3.7,1.68,4.69,4.81,3.76.69-.21,1.29-.74,1.98-.87,2.56-.46,5.14-.81,8.1-1.26-.75-1.02-1.13-1.54-1.5-2.06.76.13,1.31.77,1.81.73,2.47-.21,4.93-.59,7.38-.99.17-.03.21-.78.24-.9h5.08c-.97.47-1.53.74-2.14,1.03,4.91,3.81,6.95,4,7.57,1.33.72.15,1.54.6,2.01.36,1.19-.6,3.25,0,3.4-1.67,2.16-.42,4.21-.81,6.68-1.29-1.54.73-2.7,1.29-4,1.91,2.21,2.08,4.26,3.23,7.2,1.87,2.41-1.11,5.03-1.76,7.56-2.59,1.27-.41,2.55-.77,3.83-1.15.05.11.09.22.14.33-1.42.82-2.83,1.64-4.74,2.74,1.49.56,2.34.96,3.23,1.21,1.38.38,3.32.19,4.07,1.06,1.91,2.22,3.41.33,4.85-.22.51-.19.42-2.08.49-3.2.03-.54-.2-1.1-.19-1.09,2.56.85,5.23,1.73,7.96,2.63.04-1,.08-1.77.14-3.16.35.98.62,1.35.6,1.72-.1,2.22,1.54,2.73,3.12,2.8.88.04,2.25-.6,2.61-1.32.73-1.5-.6-3.9-2.03-4.6-2.36-1.15-4.67-2.4-7.01-3.6.12-.3.25-.6.37-.9,5.72,1.78,11.45,3.56,17.29,5.37.28-2.15.58-3.75-2.02-4.73-2.45-.93-4.57-2.74-6.84-4.16.09-.21.19-.43.28-.64,5.17,1.71,10.34,3.41,15.67,5.17.36-2.09.72-4.17,1.05-6.03-3.62-2.02-7.09-3.96-10.55-5.9.09-.17.18-.35.27-.52,4.88,1.82,9.76,3.68,14.66,5.44.99.36,2.11.36,3.47.57.75,1.87,3.3,1.41,5.2,1.93.8.22,1.92-.8,2.92-1.21.35-.14.76-.14,1.14-.2-1.05,1.58.78,1.92,1.3,2.77.17.28,1.45.32,1.73.01,1.29-1.4,1.96-3.06,1.05-5.07-.41.13-.85.27-1.28.41.94-1.64-.71-1.17-1.23-1.35-3.35-1.16-6.73-2.21-10.1-3.3.09-.29.18-.58.27-.87,4.52.84,9.03,1.81,13.59,2.42,1.04.14,2.81-.68,3.23-1.55.59-1.23.53-3-1.62-3.47-.94-.21-1.8-.75-2.69-1.15,1.3-.17,2.72.43,3.6-.03,1.37-.7,1.85.54,2.76.71,4.19.76,5.09.4,5.29-2.5.3.24.83.86,1,.77,3.1-1.55,3.7-4.15,2.71-7.37,1.29,1.93,6.23,2.31,7.47.68,1.01,2.57,1.67.37,2.18-.15.41.51.75.92,1.08,1.34.23-.48.67-.97.65-1.44-.1-2.46-.33-4.91-.51-7.36.24-.02.48-.04.72-.07.47,2.31.93,4.62,1.35,6.68.78-.39,1.75-.59,2.26-1.19.62-.72.86-1.77,1.27-2.69.17.4.33.8.52,1.23,3-2.82,3.16-6.42.64-7.86,2.04-1.63,7.12,2.43,7.04-3.8.19.97.37,1.94.73,3.77,1.7-1.68,3.13-2.77,4.09-4.18.57-.84.23-2.06-1.32-2.12-1.74-.07-3.47-.2-5.21-.31,1.49-.39,2.98-.44,4.46-.38,1.44.06,2.01-.53,1.91-1.99-.1-1.47-.02-2.96-.02-4.44.06,0,.12-.02.18-.02.44,1.99.88,3.97,1.31,5.92,3.06.42,2.16-1.42,1.82-2.8-3.59-14.58,5.4-32.54,19.3-38.16,2.26-.92,3.78-1.88,3.48-4.52.16.95.32,1.9.51,3.1,3.49-2.08,2.44-5.28,2.63-7.23,1.31-.2,2.3-.24,3.24-.51,3.93-1.12,3.92-1.14,3.86-4.69.26.82.51,1.64.77,2.46,4.07-.97,4.57-1.97,3.01-6.34-1.3,1.36-4.43.69-3.73,3.95-.22-.48-.44-.97-.68-1.5-2.4,1-4.69,1.96-6.98,2.91,2.55-1.82,5.25-3.3,8.01-4.66,3.26-1.6,3.54-2.02,2.96-5.83-1.34.74-2.62,1.45-3.9,2.16-.14-.17-.27-.33-.41-.5,2.21-1.48,5.8-1.99,4.5-5.37.46.34,1.12.84,1.79,1.33.44-.64,1.13-1.23,1.26-1.93.14-.75-.23-1.6-.44-2.74-.33.69-.48.99-.63,1.3-.15-.04-.3-.08-.45-.12.26-1.34.51-2.67.79-4.12-1.81.93-3.43,1.76-5.05,2.6.34-1.26,1.03-1.95,1.45-2.78.42-.83.57-1.79.84-2.7-.08.73-.16,1.46-.25,2.35,3.31-1.66,3.76-3.06,2.27-7.79-.77,1.64-1.28,2.73-1.79,3.82-.11-.71-.22-1.42-.35-2.28.37-.91.84-2.07,1.32-3.24ZM39.49,237.99c.58,4.15-.85,8.22-.59,12.28.15,2.36,1.83,4.62,2.82,6.92.18-.06.35-.13.53-.19.08-1.33.15-2.65.2-3.48.61,2.72.91,5.94,2.1,8.8,1.22,2.93,3.31,5.5,5.17,8.47.83-1.18,1.28-2.04,1.93-2.71,2.67-2.74,2.83-5.49.72-8.74-1.36-2.1-2.09-4.6-3.1-6.92,1.53,2.9,3.07,5.8,4.86,9.19.23-1.13.38-1.72.46-2.31.81-6.16,1.02-12.48,2.57-18.44,1.49-5.76.7-10.72-1.8-15.83-1.33-2.73-2.19-5.68-3.27-8.53l.41-.15c2.08,4.93,4.16,9.85,6.46,15.31,1.26-4,2.3-7.3,3.34-10.59.16.88.16,1.74-.19,2.41-3.66,6.97-1.76,13.34,1.95,19.58.98,1.65,1.68,3.47,2.55,5.31,6.19-6.71,12.13-13.14,18.07-19.58-5.81.72-10.31,4.22-15.39,6.75,1.3-3.08,2.53-6.17,4.46-8.74,8.03-10.73,17.16-20.45,27.58-28.9,19.36-15.7,41.21-25.04,66.34-26.09,1.09-.05,2.14-.99,3.42-1.61-5.52-5.23-12.52-8.37-13.41-16.58-17.64,7.07-34.82,14.92-50.93,24.96-1.93,1.2-3.85,2.64-6.05.65-1.5-1.35-1.17-3.03.79-6.01,12.48-19.05,25.15-37.99,37.24-57.29,2.42-3.86,5.29-6.19,9.07-7.85,16.8-7.38,33.61-14.74,50.5-21.92,2.61-1.11,4.59-2.57,6.38-4.7,16.34-19.47,34.92-36.46,56.29-50.3.56-.36,1.08-.8,1.92-1.44-23.75-12.8-48.73-19.87-75.31-21.05-22.97-1.03-45.32,2.24-67.06,10.33.24.71.37,1.16.55,1.59,4.72,11.66-.34,24.46-10.01,29.78-1.96,1.08-3.77,2.42-5.71,3.52-14.07,8.01-28.14,7.78-42.61.15.26-.13.1-.09-.01.01-.54.48-1.07.96-1.59,1.46-23.98,22.59-40.08,49.9-48.87,81.62-.73,2.65-1.03,4.9,1.2,6.93.55.51.84,1.3,1.25,1.96-.13.08-.27.15-.4.23-1-1.37-1.99-2.74-2.99-4.12-.46,4.42-4.33,8.81.38,12.94.15-.59.26-1.03.2-.79.63,1.26,1.25,3.06,2.31,4.54,3.18,4.4,6.53,8.67,9.81,13,.27.35.44.77.66,1.15-.13.08-.26.15-.39.23-5.07-6.5-10.14-13.01-15.44-19.81-2.68,16.41-3.28,32.58-.88,48.84,0-13.7.21-27.39,3.41-40.81.16,1.72.32,3.47.48,5.27-1.04.22-2.14,7.65-1.41,11.38,0,0,.05-.04.05-.04-.15.36-.42.72-.43,1.08-.22,10.29-.43,20.59-.56,30.88,0,.47.64.95,1.26,1.79v-13.27c.34,3.84.78,8.81,1.22,13.78.14-.02.27-.04.41-.05v-19.73c.29,0,.58,0,.88,0,0,5.87.14,11.75-.06,17.62-.1,2.98,1.6,3.94,3.85,4.79.27-1.33.51-2.51.75-3.7-.62,3.49,1.28,5.56,3.91,7.22.8.5,1.94.69,2.45,1.38,2.17,2.89,4.21,5.89,6.2,8.9,2.71,4.1,4.32,8.62,5.21,13.45.32,1.76,1.18,3.42,1.79,5.12.61-1.01.76-1.99.93-2.97.38-2.12.79-4.23,1.18-6.34Zm-17.59,108.37c1.22-.34,1.68-.45,2.13-.6,8.66-2.83,16.41-7.43,23.95-12.41,17.46-11.52,33.33-25.05,48.96-38.88,1.06-.94,2.24-1.92,3.54-2.36,1.03-.35,2.79-.33,3.38.31.63.68.68,2.45.26,3.44-1.21,2.86-2.67,5.63-4.23,8.32-2.13,3.68-4.43,7.25-6.66,10.87,2.66-1.39,5.12-2.99,7.46-4.75,16.19-12.15,27.89-27.98,37.27-45.7.49-.92.81-2.03,1.54-2.68.81-.71,2.1-1.51,2.99-1.32.86.19,1.95,1.49,2.1,2.43.36,2.27.44,4.63.26,6.92-.24,3.1-.84,6.18-1.33,9.66,26.57-24.03,43.53-51.98,40.5-89.54-.82.66-1.29,1.04-1.76,1.41-11.16,8.69-22.29,17.41-33.5,26.01-1.34,1.03-3.08,1.72-4.75,2.12-2.51.59-4.37-1.58-3.67-4.08.25-.9.73-1.78,1.25-2.57,7.29-11.18,14.6-22.34,21.91-33.5.43-.65.87-1.28,1.37-2.02-24.42-1.1-64.08,21.04-80.85,45.13,3.1-1.34,5.99-2.6,8.9-3.85,1.64-.71,3.3-1.1,4.48.7,1.24,1.89.73,3.51-.8,5.14-9.23,9.84-18.65,19.52-27.48,29.71-5.84,6.74-10.8,14.25-16.18,21.4-.92,1.23-.98,2.25.05,3.05,5.49-2.97,10.8-5.88,16.15-8.7,1.44-.76,3.01-.8,4.12.65,1.1,1.44.66,2.86-.45,4.13-.63.72-1.28,1.43-1.89,2.17-8.42,10.05-17.02,19.95-25.2,30.19-8.03,10.06-15.52,20.54-21,32.28-.96,2.06-1.71,4.21-2.79,6.89ZM276.01,29.84c.62.46.92.72,1.25.93,11.54,7.3,21.92,16.02,31.46,25.77,1.12,1.15,2.73,1.81,4.06,2.77.51.37.87.95,1.3,1.44.09-.07.18-.13.27-.2-.71-1.35-1.43-2.69-2.14-4.04.09-.05.18-.11.26-.16,1.53,1.35,3.06,2.71,4.59,4.06.11-.11.22-.22.33-.34-1.63-2.97-3.26-5.93-4.88-8.9.14-.09.28-.18.41-.27,3.28,4.21,6.56,8.42,9.85,12.63.22-.13.43-.25.65-.38-2.15-3.86-4.3-7.71-6.46-11.57.11-.08.22-.15.32-.23,1.3,1.14,2.59,2.28,3.78,3.33-.5-.99-1.08-2.14-1.66-3.3.1-.06.19-.12.29-.18l2.98,3.14.34-.28c-2.01-3.26-4.01-6.53-6.02-9.79.15-.1.31-.19.46-.29,2.48,3.26,4.97,6.53,7.45,9.79.22-.04.45-.07.67-.11-.11-.84,0-1.79-.37-2.5-.66-1.32-1.86-2.41-2.34-3.76-.51-1.43-.46-3.07-.63-4.49.55.43,1.26,1,2.08,1.65,1.75-2.93.9-6.47,2.96-9.08.23-.3-.23-1.07-.2-1.61.05-1,.02-2.09.4-2.99,2.06-4.92,4.25-9.8,6.37-14.7.32-.75.55-1.53.82-2.3-.16-.07-.32-.13-.48-.2-1.57,2.97-3.14,5.94-4.7,8.91-.14-.08-.29-.15-.43-.23,2.27-4.85,4.54-9.7,6.98-14.9-21.28,4.37-41.02,11.78-60.02,22.36Zm-157.23-10.19c-12.7,4.48-24.17,10.71-35.11,17.96-3.06,2.03-3.37,3.49-1.65,7.14,1.31-.84,2.61-1.67,3.91-2.51-2.67,3.1-5.58,5.8-8.48,8.53-1.08,1.02-1.84,2.12-.03,3.31,2.63-2.01,5.24-4.01,7.86-6.01.17.19.34.37.51.56-2.25,2.15-4.5,4.29-6.74,6.44.06.08.13.16.19.24l12.77-8.2c.16.22.31.45.47.67-3.44,2.87-6.87,5.74-10.6,8.86,9.95.44,18.45-2.17,26.32-7.82,10.25-7.35,12.61-17.23,10.59-29.19Zm35.3,185.48c20.2-10.09,67.88-61.48,70.36-75.79-30.09,19.02-51.21,46.06-70.36,75.79Zm-39.95-38.84c8.32-4.12,16-7.92,23.68-11.72-.06-.13-.11-.27-.17-.4-1.38.25-2.75.51-4.45.82,2.04-2.52,3.87-4.78,5.63-6.96-.51.05-1.22.11-2.28.21,1.22-.98,2.13-1.7,3.36-2.69h-2.3c1.79-1.2,3.22-2.17,4.75-3.2-.39-.25-.66-.42-1.06-.68,3.16-2.7,6.27-5.35,9.37-8-.08-.13-.15-.26-.23-.4-2.4,1.11-4.81,2.22-7.21,3.33l-.16-.21c1.81-1.7,3.63-3.4,5.73-5.38-1.05.16-1.71.25-2.5.37,2.3-2.32,4.35-4.57,6.59-6.6,1.63-1.48,3.52-2.68,5.3-4.01-.07-.11-.14-.22-.21-.34-1.96.8-3.92,1.59-5.88,2.39-.12-.21-.24-.42-.36-.62,8.19-5.31,16.38-10.61,24.58-15.92-.04-.09-.08-.18-.12-.26-.53.11-1.07.23-2.14.46,3.69-2.46,6.92-4.6,10.62-7.06-.84.04-1.09-.02-1.28.07-11.72,5.26-23.45,10.5-35.12,15.85-1.07.49-1.97,1.6-2.65,2.63-6.23,9.48-12.4,19.01-18.59,28.52-4.18,6.42-8.37,12.84-12.91,19.81Zm131.52,26.65c-2.12,1.61-4.12,3.12-6.18,4.69-.33-.83-.62-1.59-1.03-2.62-1.9,3.57-3.65,6.85-5.52,10.37-.21-.95-.36-1.65-.58-2.69-.58,1.16-.99,1.97-1.44,2.87-.25-.45-.42-.76-.53-.94-1.14,2.98-2.3,5.99-3.46,9l-.71-.21v-6.62c-1.02,2.06-1.87,3.79-2.73,5.53l-.47-.23c.13-1.33.25-2.66.41-4.29-1.24,2.08-2.31,3.87-3.37,5.65-.17-.07-.35-.13-.52-.2v-3.52c-1.98,2.8-3.82,5.38-5.64,7.99-1.41,2.01-2.78,4.05-4.56,6.65.32-1.73.5-2.76.67-3.65-6.71,5.51-8.75,13.57-11.94,21.44.57-.31.79-.4.97-.54,14.78-11.69,29.55-23.38,44.31-35.09.68-.54,1.51-1.12,1.8-1.86,2.75-7.11,5.4-14.26,8.08-21.4-5.07,2.26-4.39,7.68-6.86,11.9-.29-.98-.42-1.4-.67-2.22Zm-191.01,69.6c.23.03.45.06.68.09,2.98-3.74,5.82-7.61,8.99-11.17,1.59-1.79,1.77-3.11.63-5.19-2.05-3.74-3.76-7.67-5.61-11.52-.25.02-.5.05-.75.07-1.31,9.24-2.63,18.48-3.94,27.71Zm130.05,79.96c.43.3.95.97,1.43.94.62-.04,1.61-.54,1.72-1.01.22-.95.2-2.13-.18-3.01-.61-1.39-4.18-2.53-5.65-1.9-1.02.44-2.8,1.4-2.72,1.7.44,1.58,1.03,3.4,2.2,4.41,2.04,1.76,2.85,1.27,3.21-1.14Zm-146.32-74.44l.77.24c.73-2.33,1.45-4.67,1.92-6.18.18,1.08.52,3.11.96,5.7,1.66-5.85-1.19-9.88-3.65-14.08v14.32Zm199.35,52.08c.32,1.88.48,3.38.84,4.84.25,1,.76,1.92,1.16,2.88.8-.6,1.6-1.2,2.4-1.8.09-.07.2-.23.25-.21,1.5.62,1.68-.27,1.61-1.42-.07-1.18.05-2.42-1.57-2.82-1.47-.36-2.89-.9-4.69-1.48Zm-88.7,20.46c2.04-.56,3.52-.9,4.95-1.4.66-.23,1.69-.79,1.7-1.2,0-.74-.5-1.62-1.05-2.2-1.95-2.06-3.85.04-5.75.3-.49.07-1.25,1.22-1.16,1.75.17.98.87,1.88,1.32,2.74Zm127.63-29.58c3.55.37,4.43-1.88,3.32-7.25-1.4.1-3.26-.28-4.24.48-.73.57-.33,2.61-.43,4l.79.24c.18-.44.37-.88.56-1.34v3.87Zm-91.11,25.76c2.05,1.2,4.07,2.45,6.18,3.55.47.24,1.78-.08,1.78-.16.02-1.59.71-3.29-.96-4.62-2.73-2.18-4.67.35-6.99,1.23Zm-4.22-1.01c-3.39-3.24-4.71-3.29-9.5-.42.49,1.19-.14,3.44,2.35,2.83,2.41-.59,4.73-1.57,7.15-2.4Zm-15.91-.1c-3.78-3.71-5.53-3.97-9.26-1.26,2.57,4.38,5.98,2.6,9.26,1.26Zm168.22-97.35c4.74-1.01,6.19-2.93,5.04-6.5-6.27,1-6.54,2.31-5.04,6.5Zm-290.68,35.76c.14.07.28.15.42.22,1.19-1.03,2.45-1.99,3.53-3.12.38-.4.61-1.38.38-1.83-1.09-2.15-2.36-4.21-3.79-6.7-.81,4.84-.45,6.37,1.16,6.38-.56,1.66-1.13,3.36-1.7,5.05Zm204.25,56.63c1.5-1.49,2.92-2.81,4.22-4.24.45-.5.59-1.29.93-2.07-2.32-.42-4.31-1.72-6.02.32-.4.48-.44,1.26-.64,1.9.17.04.34.09.52.13.53-.58,1.06-1.15,1.59-1.73q-1.66,3.51-.6,5.7Zm43.07-214.88c2.56-2.38,2.68-5.39.55-9.15-2.71,2.14-2.69,2.14-1.64,5.31.4,1.2.69,2.43,1.08,3.84Zm-117.43,224.7c.62,2.94,1.09,5.15,1.6,7.54,1.81-.75,3.32-1.37,4.98-2.06-1.31-2.94-4.13-3.39-6.58-5.49Zm-40.63-6.87c.53,3.95,1.76,4.76,5.24,3.44-.18-4.31-1.43-5.14-5.24-3.44Zm138.45-10.52c-.1-.06-.2-.11-.3-.17.35-1.1.7-2.19,1.22-3.82-1.06.26-2,.22-2.17.57-.88,1.79-2.16,3.61-.48,6.02,1.05-.18,2.54-.03,3.29-.71.49-.44-.07-2.07-.21-3.73-.73.99-1.04,1.42-1.35,1.84Zm-62.45,16.13c1.78-.68,3.39-1.22,4.92-1.93.23-.11.26-1.42.09-1.49-1.36-.57-2.77-1.23-4.21-1.36-1.28-.11-2.16.78-1.7,2.29.25.81.57,1.6.89,2.5Zm114.27-89.26c-3.09-.25-4.95,1.02-6.87,4.54,1.48-.24,3.05-.56,4.64-.74,2.33-.26,2.92-1.54,2.23-3.8Zm-217.27,76.61c.42,1.34.85,2.69,1.3,4.08,1.29-.2,2.44-.38,3.58-.56.09-4.91-.26-5.17-4.88-3.52Zm89.79,14.22c1.1,3.11,2.38,3.37,5.61,1.28.12-3.97-1.79-3.48-5.61-1.28Zm-94.01-4.38c-.81-2.83-1.46-5.45-2.37-7.98-.2-.56-1.34-.78-2.04-1.16-.19.25-.38.5-.57.74,1.81,2.66,1.12,6.69,4.97,8.4Zm120.72.17c.25.12.5.24.75.36.83-1.42,1.65-2.84,2.48-4.26l-4.34-2.28c-.15.16-.29.32-.44.48.52,1.9,1.04,3.8,1.56,5.69Zm122.97-144.27c3.12-1.84,4.15-4.36,3.76-7.73-3.11,1.69-3.96,4.3-3.76,7.73Zm-80.75,133.93c-2.34,1.55-2.98,3.32-2.01,5.47.22.47,1.25.85,1.86.78.49-.06,1.33-.9,1.28-1.29-.2-1.6-.7-3.16-1.14-4.96Zm-60.04,20.79c.2-.07.4-.14.61-.21.13-.53.25-1.07.39-1.63.32.76.58,1.4.91,2.18.78-.39,1.45-.72,2.08-1.02-.41-1.51-.76-2.79-1.18-4.32-.92.45-1.71.76-2.41,1.2-.6.37-1.6.95-1.55,1.33.1.86.74,1.66,1.16,2.48Zm61.65-33.64c-.24,1.09-.39,1.82-.57,2.64.87.1,1.55.18,2.33.26.64-1.35,1.26-2.67,1.91-4.06-3.93-.95-5.03-.42-5.39,2.51.58-.46,1.03-.81,1.71-1.35Zm-35.68,13.9c-.25.17-.49.34-.74.52.65,1.29,1.02,3.27,2.03,3.68,1.12.46,2.82-.52,4.27-.87-.02-.29-.04-.59-.07-.88-1.83-.81-3.66-1.63-5.5-2.44Zm-102,12.25c1.28-.51,2.99-.79,3.06-1.31.16-1.11-.34-2.44-.92-3.49-.26-.46-1.37-.56-2.09-.56-.18,0-.53,1-.52,1.54.04,1.15.26,2.3.46,3.82Zm218.8-163.84c2.8-1.58,3.97-3.66,3.11-6.71q-3.35,1.85-3.11,6.71ZM36.22,247.78v11.28c1.94-2.52,1.9-8.21,0-11.28Zm81.48,93.62c.22-.14.44-.28.66-.42-.22-1.63-.45-3.26-.7-5.11-1.39.21-2.62.4-4.64.71,1.84,1.9,3.26,3.36,4.68,4.82Zm80.4,8.75c1.21-.4,2.34-.67,3.33-1.19.3-.16.47-1.13.29-1.54-.57-1.24-3.27-1.7-4.87-.82.4,1.14.82,2.32,1.25,3.55Zm-34.75-6.13c-1.33.44-2.35.78-3.33,1.1.51,3.14,1.08,3.77,3.84,4.37-.16-1.74-.32-3.46-.5-5.47Zm-24.33-5.37c.7,2.89,1.94,4.09,3.65,3.47.45-.16.99-1.02.93-1.47-.29-1.96-1.93-2.65-4.58-2Zm211.04-158.06c4.2-2.49,2.04-5.3,1.53-8.5-1.95,2.87-.87,5.59-1.53,8.5Zm-28.85,98.55c2.26-2.26,2.42-3.26,1.11-6.18-2.41,1.22-2.45,1.4-1.11,6.18Zm-7.84-204.42c-2.12,3.23-2.07,4.05.2,7.2,2.68-2.39.39-4.62-.2-7.2Zm-148.43,262.82c.35,1.25.65,2.34,1,3.6,1.7-.65,3.06-1.17,4.73-1.82-1.94-1.24-3.08-3.51-5.74-1.79Zm185.16-147.72c-2.01,1.36-2.56,3.39-1.83,6.36,2.99-1.55,3.04-1.71,1.83-6.36Zm-28.15,77.71c-3.18.16-3.61,1-2.5,4.64,2.84-.35,2.99-.62,2.5-4.64Zm-238.74,52.28c-.27-.15-.53-.29-.8-.44-.84.56-2.41,1.16-2.38,1.67.08,1.38.84,2.72,1.33,4.07.37-.06.74-.13,1.11-.19.25-1.71.49-3.41.74-5.12Zm123.34,33.48c1.5-.27,2.58-.47,3.65-.66-.12-2.65-1.95-3.11-4.24-3.53.2,1.44.38,2.71.59,4.2Zm-82.64-6.91c-.41-5.1-.93-5.45-4.72-3.54,1.68,1.26,3.2,2.4,4.72,3.54Zm185.01-56.34c-3.26,1.83-3.41,2.14-2.36,4.66,3.54-.58,3.54-.59,2.36-4.66Zm-153.59,54.29c.28-.09.56-.18.84-.27-.13-1.28-.26-2.56-.41-4.02-1.82.48-3.36.88-4.9,1.29,1.25.8,2.01,2.84,3.81,1.69.1.2.38.76.66,1.31Zm35.72,2.2c1.12-.79,2.15-1.31,2.84-2.12.19-.22-.48-1.76-.96-1.88-.99-.24-2.11.07-3.42.17.61,1.51.98,2.45,1.54,3.83Zm-107.23-29.21c2.81-.95,3.03-1.49,2-4.78-2.94.91-3.13,1.33-2,4.78Zm244.48-68.1c-2.76-.32-4.04,1.01-4.69,3.73,1.85-.53,3.41-.98,5.02-1.44-.14-.97-.24-1.65-.33-2.29Zm-310.21-4.31l.85-.04c1.53-3.82,1.52-6.66-.24-8.48-.21,2.99-.41,5.75-.61,8.52Zm214.27-86.7c-1.45,1.47-1.07,3.62.99,5.92.3.34,1.13.2,2.09.34-1.18-2.38-2.08-4.21-3.09-6.26Zm-15.9,184.74c.85-.93,1.74-1.46,1.8-2.06.1-1.04-.21-2.16-.61-3.15-.11-.27-1.18-.32-1.72-.17-.26.07-.49.89-.43,1.32.18,1.15.52,2.28.95,4.06Zm92.38-253.07c2.46-2.46.24-4.6.36-7.1-3.11,2.51-.65,4.65-.36,7.1Zm-229.46,229.25q3.44-1.02,2.68-4.81c-1.33,1.41-4.1,1.71-2.68,4.81Zm32.76,11.8c.09,3.08.7,4.88,4.35,2.8-1.6-.81-1.76-3.5-4.35-2.8Zm23.97,13.76c1.02,3.5,1.32,3.72,3.86,2.72-.33-1.07-.66-2.15-1.03-3.36-1.02.23-1.85.42-2.83.65Zm94.72-178.21c2.08-1.29,1.79-2.59-.88-5.92-2.05,2.42.82,3.75.88,5.92Zm74.63,121.59c1.39-.96,2.52-1.87,2.04-3.61-.13-.48-1.08-1.21-1.38-1.09-1.76.68-1.39,2.22-1.19,3.63.04.28.26.54.53,1.07Zm-46.03,33.93c.23.1.47.19.7.29.79-1.23,1.59-2.45,2.56-3.96-1.67-.26-2.86-.45-4.11-.64.32,1.64.59,2.97.85,4.31Zm84.49-100.59c3.3-1.16,1.87-3.27,1.65-5.17-2.98.95-2.04,3-1.65,5.17Zm-190.07,129.7c.22-.12.44-.24.66-.36-.07-1.32-.15-2.64-.23-4.14-1.25.31-2.28.56-4.04.99,1.5,1.46,2.56,2.49,3.62,3.52Zm21.59-2.92c-.06.28-.11.57-.17.85,1.35.44,2.7.87,4.05,1.31.05-1.08.1-2.17.16-3.51-1.69.57-2.87.96-4.05,1.35Zm139.05-85.48c.25.22.51.43.76.65.46-.49,1.29-.96,1.31-1.47.08-1.87-.12-3.74-.21-5.62l-.64-.09c-.41,2.17-.81,4.35-1.22,6.52Zm-9.86-172.88c-2.78,1.86-1.21,3.57-.42,5.53,2.41-1.87.56-3.59.42-5.53Zm-11.88,200.48c.3,1.63.52,2.86.88,4.8,1.27-1.68,2.09-2.77,3.22-4.26-1.66-.22-2.64-.35-4.1-.55Zm-182.05,44.8c.14-.13.28-.26.42-.38-.22-1.13-.43-2.26-.7-3.64-1.22.17-2.28.31-3.88.53,1.71,1.43,2.93,2.46,4.16,3.49Zm144.67-4.56c.29.05.59.1.88.15,2.02-2.06,2.16-3.18.22-5.62-.43,2.12-.76,3.8-1.1,5.47Zm-136.09,6.1c-.15.11-.29.21-.44.32.17,1.3.33,2.6.52,4.11,1.31-.33,2.31-.58,3.76-.94-1.56-1.42-2.7-2.46-3.84-3.5Zm68.58,18.03c3.45-.77,1.16-2.7,1.1-4.1-.01-.27-.6-.52-.92-.78-.27.39-.78.79-.76,1.17.07,1.17.34,2.32.58,3.71Zm151.74-105.56c-.32-.21-.65-.42-.97-.63-1.18,2.43-2.35,4.86-3.53,7.29l.92.47c1.19-2.38,2.39-4.76,3.58-7.13Zm12.95-68.62c-2.81,2.17-2.91,3.05-.84,6.07.32-2.3.58-4.19.84-6.07Zm-2.4,32.64c-2.86,1.28-3.33,3.72-1.14,5.86.39-2.01.75-3.83,1.14-5.86Zm-17.15,30.02c-.98.24-2,.5-3.19.79.23.94.41,1.67.63,2.52,1.58-.61,3.86-.31,2.56-3.3Zm-236.58,91.14c.21-.1.42-.2.63-.3q-1.14-6.04-3.3-5.92c.92,2.14,1.79,4.18,2.67,6.22Zm187.57-18.19c2.78.1,2.14-2.1,2.65-3.65-2.56.08-3.23,1.04-2.65,3.65Zm-50.05,30.78c.75-.58,1.75-.98,1.91-1.59.2-.78-.29-1.74-.48-2.62-2.64.78-2.76,2.07-1.43,4.21Zm-100.52,2.18c.12-.22.24-.44.37-.66-1.05-.79-2.05-1.65-3.17-2.32-.41-.24-1.1,0-1.67.02.22.6.29,1.53.7,1.73,1.18.57,2.5.83,3.77,1.22Zm149.24-39.95c1.17-1.65,1.96-2.78,2.86-4.05-3.32-.88-3.84-.23-2.86,4.05Zm-116.92,35.98c-.22.05-.45.09-.67.14.76,2.32-.39,5.24,2.79,7.38-.8-2.85-1.46-5.18-2.12-7.52Zm136.04-246.64c1.73-1.93.5-3.55.07-5.3-2.8,1.78-.77,3.39-.07,5.3Zm-199.56,233.35c-.18.14-.37.28-.55.42.47,1.12.86,2.29,1.47,3.33.21.36.96.41,1.46.6.12-.5.51-1.21.32-1.46-.8-1.04-1.78-1.94-2.7-2.89Zm211.9-64.02c.42,1.69.72,2.91,1.11,4.52.9-1.67,1.51-2.79,2.29-4.22-1.19-.1-2.01-.18-3.4-.3Zm-142.42,73.71c-.22-.1-.44-.2-.66-.3-.3.52-.94,1.15-.83,1.56.37,1.35,1.02,2.62,1.57,3.92l.85-.33c-.31-1.62-.62-3.23-.93-4.85Zm105.12-23.87c-.52-1.9-.88-3.21-1.25-4.53l-.9-.04c-.17,1.22-.49,2.44-.4,3.64.02.31,1.36.51,2.55.92Zm-150.66,16.8c-1.01.19-1.81.35-2.6.5,1.07,1.26,2.03,2.38,3.43,4.03-.36-1.95-.58-3.14-.83-4.54Zm105.19,4c.38.22.76.45,1.14.67.91-.99,1.82-1.98,2.72-2.97-.18-.31-.35-.62-.53-.93-.94.25-2.08.25-2.75.82-.51.43-.41,1.58-.58,2.41Zm-84.5,10.77c-.03,3.34.55,3.76,4.23,3.18-1.49-1.12-2.68-2.02-4.23-3.18Zm203.79-153.54c-3.4,1.87-1.79,4.05-1.01,6.14.31-1.91.63-3.83,1.01-6.14ZM88.72,324c.12,1.68.98,2.49,2.18,1.75.66-.41.71-1.81,1.03-2.76l-.64-.29c-.83.42-1.66.84-2.57,1.31Zm243.04-67.55l1.14.47c.81-1.92,1.62-3.83,2.43-5.75-.31-.13-.62-.27-.94-.4-.88,1.89-1.75,3.78-2.63,5.68Zm-88.61,85.87c-.17-1.43-.28-2.74-.49-4.02-.05-.3-.41-.65-.71-.79-.17-.08-.62.13-.77.34-.66.88.55,3.95,1.97,4.47Zm-62.48,12.88c-.19-.59-.23-1.09-.39-1.13-1.05-.3-2.11-.57-3.19-.67-.21-.02-.49.76-.73,1.17.9.28,1.78.61,2.7.8.42.09.9-.09,1.61-.18Zm.88-9.17c-.17.14-.35.28-.52.43.27.99.54,1.97.84,3.1,1.21-.47,2.12-.83,3.56-1.38-1.62-.9-2.75-1.52-3.88-2.15Zm159.41-110.82c.72-1.66,1.44-3.32,2.34-5.41-3.13,1.05-3.26,2.99-2.34,5.41Zm-184.53,112.39c-.87,3.59-.41,4.84,1.85,5.96-.66-2.14-1.26-4.05-1.85-5.96Zm159.85-69.08c.38.07.75.13,1.13.2.25-1.12.61-2.24.7-3.37.03-.38-.64-.82-.99-1.22-.28.41-.75.79-.8,1.22-.12,1.05-.04,2.12-.04,3.18Zm-131.27,76.01c.22-.17.44-.35.67-.52-.17-1.03-.34-2.07-.54-3.33-1.01.43-1.69.72-2.88,1.22,1.12,1.07,1.94,1.85,2.76,2.63Zm17.78-3.98c-3.01.36-1.46,1.93-1.4,3.34.92-.13,1.64-.24,2.6-.37-.47-1.16-.82-2.02-1.21-2.97Zm-40.75-8.24c-1.51-1.17-2.61-2.02-3.71-2.88-.15.13-.3.25-.45.38.39,1.13.78,2.25,1.2,3.47.98-.32,1.69-.55,2.96-.97Zm26.12.79c-1.08,1.03-2.33,1.81-2.22,2.19.24.82,1.18,1.43,1.83,2.13.22-.14.44-.27.66-.41-.07-1.04-.15-2.08-.27-3.91Zm115.09-52.35c-.41-.18-.82-.36-1.23-.53-.57,1.69-1.14,3.39-1.72,5.08.32.12.64.25.97.37.66-1.64,1.32-3.28,1.98-4.92Zm-133.45,62.25l.75-.2c-1.06-1.82.35-4.54-2.86-6.11.81,2.42,1.46,4.37,2.11,6.31Zm159.01-87.54c-3.32.45-3.51.82-2.09,4.14.72-1.43,1.38-2.73,2.09-4.14Zm-14.37-192.69c-.22.09-.44.17-.67.26.66,1.52,1.32,3.04,2.13,4.89,1.83-2.92-.81-3.64-1.46-5.15Zm-3.18,12.47c.25-.04.5-.09.74-.13.74-1.99-.52-3.5-1.22-5.15-.26.06-.52.12-.77.17.42,1.7.83,3.4,1.25,5.1Zm-32.75,231.94q3.37-2.77,1.91-4.92c-.72,1.85-1.31,3.38-1.91,4.92Zm-84.23,29.91c-.96.74-1.57,1.22-2.18,1.69.84.76,1.68,1.52,2.51,2.27.15-.14.31-.27.46-.41-.21-.97-.43-1.93-.79-3.56Zm33.57-1.72c.89-1.33,1.54-2.31,2.26-3.4-3.18-.58-3.49-.17-2.26,3.4Zm24.04-13.68c.27.07.54.13.81.2.3-1.18.59-2.37,1.01-4.05-3.06,1.03-2.65,2.38-1.82,3.85Zm22.25-25.15c-.17-.01-.33-.03-.5-.04-.27,1.34-.58,2.67-.74,4.02-.01.09,1.11.31,2.15.6-.37-1.86-.64-3.22-.91-4.57Zm-48.01-141.55c-1.34.83-1.99,1.66-.78,2.76.54.49,1.31.72,1.98,1.07.11-.21.23-.43.34-.64-.48-.99-.96-1.99-1.54-3.19Zm-135.68,145.43c-3.41.72-2.55,2.82-2.36,4.63.69-1.36,1.38-2.72,2.36-4.63Zm208.7-15.26c.14.03.28.06.42.09.47-1.48.94-2.96,1.52-4.79-1.08.25-1.71.4-2.39.57.17,1.5.31,2.82.46,4.13Zm-8.31,7.34c3.35-1.06,1.89-3.19,2-4.88-.19-.05-.38-.11-.57-.16-.45,1.59-.9,3.17-1.42,5.05Zm-41.68,30.65c-.53,1.2-1.05,1.84-1,2.44.04.49.75.92,1.16,1.38.43-.58,1.1-1.12,1.21-1.76.08-.43-.63-1-1.37-2.06Zm-55.24,3.35c.3,1.41.5,2.37.74,3.5,1.11-.47,2.01-.86,3.21-1.37-1.38-.74-2.45-1.32-3.95-2.12Zm-72.52-3.44c-.11-1.25-.19-2.25-.3-3.48-1.04.17-1.84.3-3.05.49,1.27,1.13,2.18,1.95,3.34,2.99Zm145.12-193.92c2.9-1.13,2.59-2.45.87-4.07-.26,1.2-.51,2.39-.87,4.07Zm80.69,66.3c-.42,1.06-.83,2.13-1.25,3.19q2.83-.73,1.25-3.19Zm-199.59,137c-.31-.09-.62-.17-.93-.26-.12.99-.4,1.99-.3,2.95.04.43.84.78,1.3,1.16.17-.14.34-.29.52-.43-.19-1.14-.39-2.28-.58-3.42Zm24.52,6.83c-.23.14-.45.27-.68.41.11.95.23,1.91.37,3.08.9-.3,1.52-.5,2.68-.88-.98-1.07-1.67-1.84-2.37-2.61ZM327.2,43.23c-.29-.03-.58-.06-.87-.09-.96,1.2-2.26,2.39.51,4.14.14-1.57.25-2.81.36-4.05ZM14.72,226.2c-.31-.02-.63-.04-.94-.06v5.78c.19,0,.39.01.58.02.12-1.92.24-3.83.36-5.75Zm248.13,94.46c-.86,1.42-1.45,2.39-2.16,3.56,2.78.18,3.13-.38,2.16-3.56Zm-158.77,5.88c-1.2.16-2.13.28-3.68.49,1.51,1.04,2.45,1.69,3.84,2.64-.07-1.32-.11-2.13-.16-3.13Zm223-80.49c-.23-.29-.46-.59-.7-.88l-3.59,2.36.71,1.03c1.19-.84,2.38-1.67,3.57-2.51Zm-5.3,18.35c-.11-.24-.22-.47-.32-.71-1.04.12-2.08.25-3.32.39.23.79.39,1.32.64,2.15,1.16-.71,2.08-1.27,3-1.83Z"/>
      <path class="cls-3" d="m47.58,152.61c-1.8-1.86-2.64.16-3.08,1.1-1.34,2.84-2.33,5.85-3.18,8.07-3.67-11.42,6.91-21.52,16.91-21.55,3.88-.01,7.87.14,11.61,1.04,5.21,1.26,8.6,4.8,10.21,10.12,1.48,4.87,2.02,9.71.46,14.57-.71,2.22-1.99,4.25-3.01,6.37-.23-.1-.46-.2-.7-.29.16-.43.28-.87.48-1.28,4.12-8.24,3.17-10.66-4.33-16.57-4.62-3.64-10.61-4.59-16.42-5.16-.96-.09-2.5,1.22-3.05,2.26-2.26,4.24-4.23,8.63-6.16,12.65-.5-2.11-.25-3.24,2.02-8.22.78-1.7.68-3.05-1.47-3.53-.1.14-.19.29-.29.43Z"/>
      <path class="cls-3" d="m216.08,50.08c-4.37-.05-8.11-1.28-11.45-3.64-3.42-2.41-4.23-5.89-2.36-9.67,2.1-4.22,7.31-7.15,11.91-6.8,2.46.19,4.68.73,6.89,2.03,4.07,2.4,6.2,6.41,5.3,11.02-.77,3.92-3.91,6.45-8.64,6.93-.63.06-1.27.1-1.64.12Zm-1.44-7.62c-.16.16-.33.32-.49.48-1.54-1-3.09-2.01-4.63-3.01-.14.14-.28.28-.42.42,1.01,1.16,2.02,2.32,3.35,3.85h-2.79c.78,3.53,1.04,3.82,4.27,3.61,1.82-.12,3.67-.38,5.41-.9,4.04-1.21,5.71-4.8,4.26-8.71-1.53-4.11-5.44-5.94-9.37-4.29,1.39.89,2.74,1.76,4.19,2.69-2.74,1.18-4.98-2.88-7.91-.2,1.14.6,1.87.97,3.11,1.62h-3.2c1.54,1.62,2.89,3.03,4.23,4.44Z"/>
      <path class="cls-3" d="m93.13,85.54c.15.27.5.63.43.8-.88,1.88-1.83,3.74-2.76,5.6.16.11.32.22.49.34.34-.25.69-.5,1.16-.85-.74,2.22-1.45,4.32-2.17,6.49,3.96,1.58,7.59,2.39,11.89.22-3.66,3.53-9.03,3.58-12.21.71-.84-.76-1.97-1.17-2.96-1.77-6.67-4.05-6.65-7.09-5.02-12.89-3.84,3.31-7.37,6.35-10.78,9.29,1.84-1.99,3.86-4,5.66-6.18,1.06-1.28,1.79-2.83,2.67-4.25l-.54-.4c.06.68.11,1.37.21,2.57,3.25-2.87,6.11-5.57,9.16-8.03,1.56-1.26,3.35-2.7,5.21-3.01,4.32-.73,8.61-.24,12.15,3.24-5.06-2.22-9.69-2.21-13.43,2.31-.25.31-.18.88-.34,1.79,1.5-1.2,2.57-2.05,3.63-2.9-.72,2.35-3.47,3.59-2.86,6.45-.46.12-1.3.18-1.33.36-.24,1.58-2.75,2.72-.88,4.86.91-1.64,1.78-3.19,2.64-4.73Zm-4.29,5.69c-1.18,3.66-.91,5.59.56,6.15,1.58-2.21.23-4.16-.56-6.15Z"/>
      <path class="cls-3" d="m158.18,89.63c-2.23,0-4.31.45-6.1-.09-5.01-1.49-7.15-6.55-4.84-11.32,1.06-2.2,2.54-4.25,4.12-6.12,2.16-2.57,7.29-2.88,11.44-.98,2.89,1.32,5.01,5.02,4.69,8.25-.07.66-.36,1.3-1.1,1.96-.39-1.65-.69-3.32-1.2-4.93-.7-2.19-3-2.92-4.74-1.42-.5.43-.41,1.56-.58,2.37.23.08.46.16.7.24-.69.63-1.37,1.27-1.79,1.65.06-.7.14-1.67.22-2.65-.28-.09-.56-.18-.85-.27-.91.83-1.88,1.61-2.7,2.52-.9.99-1.66,2.11-2.86,3.65-.32-.49-.91-1.39-1.49-2.27-2.91,2.1-3.19,3.81-.4,5.85,2.11,1.54,4.77,2.31,7.5,3.57Z"/>
      <path class="cls-3" d="m47.58,152.61c.1-.14.19-.29.29-.43-.31,1.02-.67,2.02-.93,3.05-1.08,4.24-2.52,8.44-3.08,12.74-.37,2.84,2.44,4.49,4.32,6.39-1.13-4.53-.41-8.75,1.7-12.82-.15,1.33-.29,2.66-.44,4,1.81-4.18,3.09-8.56,6.73-11.68-.31.58-.67,1.13-.94,1.73-2.02,4.63-4.34,9.16-5.94,13.93-1.41,4.21,1.27,8.48,5.69,9.05,3.56.46,7.26-.08,10.89-.19.3,0,.6-.1,1.25-.21-10.17,4.8-19.18,1.63-23.79-8.16-.54-1.16-.63-2.31-.32-3.88.94-4.76,2.41-9.23,4.56-13.53Z"/>
      <path class="cls-3" d="m127.4,19.31c6.65,19.46-4.96,35.18-19.67,40.72,1.31-.93,2.6-1.9,3.94-2.77,4.82-3.13,8.77-7.1,12.05-11.85,3.48-5.05,4.72-10.59,4.39-16.58-.18-3.17-.47-6.34-.71-9.51Z"/>
      <path class="cls-3" d="m46.8,79.43c-9.38,17.99-21.79,34.16-30.6,52.47,1.67-3.72,2.99-7.65,5.07-11.12,8.26-13.76,16.75-27.37,25.17-41.04.08-.13.23-.21.35-.32Z"/>
      <path class="cls-3" d="m47.38,179.61c-8.36-1.28-13.67-12.62-9.81-20.93-1.47,9.2,3.01,15.61,9.81,20.93Z"/>
      <path class="cls-3" d="m86.88,154.79c2.42,11.75-2.6,22.92-12.39,26.79,8.4-7.43,14.89-15.07,12.39-26.79Z"/>
      <path class="cls-3" d="m66.35,79.43c-.86,3.77-13.31,27.24-20.51,37.03,6.96-12.56,13.91-25.11,20.51-37.03Z"/>
      <path class="cls-3" d="m85.13,63.11c-7.79,2.76-23.08.34-25.84-4.29,8.16,4.36,16.91,4.83,25.84,4.29Z"/>
      <path class="cls-3" d="m53.14,193.82c-1.07.17-2.16.55-3.22.48-5.59-.36-13.79-5.6-16.59-10.64,5.47,5.42,11.65,9.35,19.81,10.17Z"/>
      <path class="cls-3" d="m32.63,169.45c-3.1-8.29,3.97-26.48,9.13-27.96-7.61,7.79-9.14,17.35-9.13,27.96Z"/>
      <path class="cls-3" d="m159.39,67.38c5.04-.24,8.62,1.11,10.87,5.14,1.75,3.13,2.51,6.38,1.54,9.69-1-3.2-1.68-6.62-3.13-9.69-1.62-3.43-5.28-4.19-9.29-5.14Z"/>
      <path class="cls-3" d="m106.72,80.81c3.95,4.22,3.48,10.7-1.18,14.07,2.82-4.61,1.26-9.39,1.18-14.07Z"/>
      <path class="cls-3" d="m63.35,128.35c7.52,1.28,14.25,4.11,19.48,9.92-5.58-5.12-12.48-7.62-19.48-9.92Z"/>
      <path class="cls-3" d="m91.86,174.79c-1.49,5.51-9.29,13.31-14.71,14.73,5.77-4.36,11.71-8.11,14.71-14.73Z"/>
      <path class="cls-3" d="m113.59,85.42c-.34-6.69-4.37-10.8-9.65-14.07,6.91,2.16,11.23,9.81,9.65,14.07Z"/>
      <path class="cls-3" d="m198.87,32.94c-.65,3-1.31,6.04-1.96,9.03-2.15-3.03-1.04-7.69,1.96-9.03Z"/>
      <path class="cls-3" d="m24.19,210.66c-2.58-5.47-5.16-10.94-7.73-16.41.17-.08.35-.17.52-.25,2.6,5.46,5.2,10.91,7.81,16.37-.2.1-.4.19-.6.29Z"/>
      <path class="cls-3" d="m173.94,86.16c1.16-3.3,2.38-6.77,3.51-10,1.62,2.01-.04,7.14-3.51,10Z"/>
      <path class="cls-3" d="m73.78,67.26c4.17.35,8.06.68,11.94,1.01-1.82,1.37-8.42.89-11.94-1.01Z"/>
      <path class="cls-3" d="m74.12,138.63c-5.4-2.63-10.74-5.2-16.87-5.38,3.55-.96,12.16,1.77,16.87,5.38Z"/>
      <path class="cls-3" d="m118.85,57.99c3.06-4.09,6.12-8.17,9.19-12.26.14.1.28.21.42.31-3.04,4.11-6.08,8.22-9.11,12.34-.17-.13-.33-.26-.5-.39Z"/>
      <path class="cls-3" d="m233.71,38.89c-1.63-2.28-3.39-4.76-4.99-7.01,3.81,1.99,5.66,4.72,4.99,7.01Z"/>
      <path class="cls-3" d="m135.55,24.62c-.46,4.29-.93,8.58-1.39,12.87-.19-.02-.38-.04-.58-.06.47-4.3.93-8.6,1.4-12.89.19.03.38.06.57.09Z"/>
      <path class="cls-3" d="m199.08,25.35l7.96-1.53c.05.26.1.51.15.77l-8.01,1.25c-.03-.16-.07-.33-.1-.49Z"/>
      <path class="cls-3" d="m40.98,183.26c2.67,1.4,5.35,2.8,8.02,4.21l-.24.48c-2.69-1.38-5.38-2.75-8.06-4.13.1-.19.19-.37.29-.56Z"/>
      <path class="cls-3" d="m46.86,246.3c-.41-.32-1.03-.55-1.21-.97-1.02-2.38-1.94-4.81-2.9-7.21.73,1.39,1.44,2.8,2.23,4.16.14.23.6.28.86.39.31,1.09.66,2.36,1.02,3.64Z"/>
      <path class="cls-3" d="m110.69,97.69c-2,1.77-3.99,3.55-5.99,5.32-.15-.17-.3-.34-.45-.51,2-1.77,4.01-3.54,6.01-5.32.14.17.28.34.42.51Z"/>
      <path class="cls-3" d="m10.63,177.62c1.47,2.57,2.94,5.14,4.41,7.71l-.75.38c-1.21-2.71-2.41-5.42-3.62-8.13,0,0-.05.04-.05.04Z"/>
      <path class="cls-3" d="m174.45,300.36c-.54-.65-1.08-1.3-1.7-2.05-.7.58-1.36,1.12-2.4,1.97.67-2.13,2.95-3.83.26-5.91-1.87,2.59-3.76,5.21-5.65,7.83-.19-.12-.39-.25-.58-.37,1.75-2.71,3.5-5.42,5.63-8.71-2.29,1.18-4.54,1.74-5.85,3.17-1.44,1.56-2.02,3.91-3.43,5.85-.14-1.04-.27-2.09-.44-3.35-1.93,1.72-3.01,3.47-2.21,6.06,1.4,4.54,3.37,8.75,6.69,12.23-5.73-.69-9.11-4.32-10.68-11.27-.85-3.77-.1-7.03,2.21-10.13,7.54-10.11,18.01-12.79,29.74-11.28,7.84,1.01,13.78,10.36,12.17,18.28-1.08,5.31-3.92,9.73-7.93,13.38-.29.27-.64.47-.99.67-.12.07-.3.03-.7.05,4.31-5.36,8.35-10.71,7.46-18.61-2.01,1.19-3.66,2.17-5.31,3.15-.09-.12-.17-.23-.26-.35,1.6-1.25,3.21-2.5,4.8-3.75-1.59-1.93-2.29-2.08-4.47-.45-2.91,2.17-5.74,4.44-8.61,6.67.92-1.03,1.83-2.07,2.74-3.11,1.14-1.04,2.29-2.08,3.42-3.09-.74-1.22-1.27-2.09-1.8-2.97q-3.21,2.24-1.84,5.41c.09.22.17.45.25.67-.82-.89-1.63-1.78-2.44-2.67q-2.24,1.84-1.68,4.72c-.41-.57-.83-1.13-1.33-1.81-.7.57-1.36,1.11-2.22,1.82.03-1.69,2.98-2.59.43-4.8-1.15,1.63-2.37,3.35-3.58,5.06-.27-.25-.55-.5-.82-.75.36-.53.73-1.06,1.08-1.6.7-.84,1.31-1.78,2.12-2.49,1.24-1.09,1.13-2.05.1-3.14q-3.44,2.4-2.18,5.66Zm13.2-7.26c-.12.17-.25.34-.37.51.46,1.04.91,2.07,1.43,3.26,1.03-.68,1.85-1.22,3.05-2.02-1.64-.7-2.88-1.22-4.11-1.75Zm-16.29-.3c.51,1.21.85,2.03,1.33,3.17,1.11-1.36,1.95-2.4,3.23-3.97-1.83.32-2.95.52-4.55.8Zm7.19,2.92c1.93-.97,2.49-2.03.61-3.46-2.07.8-1.8,1.97-.61,3.46Zm.41,2.24l.78.51q2.39-1.44,1.01-3.47c-.67,1.12-1.23,2.04-1.79,2.96Zm7.01-4.51c-.18-.3-.36-.6-.53-.9-1.01.6-2.06,1.16-3,1.85-.14.1.22.88.41,1.61,1.22-1,2.17-1.79,3.12-2.57Z"/>
      <path class="cls-3" d="m267.93,239.96c-1.91-4.79-5.04-8.45-10.17-9.63-2.3-.53-4.84-.08-7.26.03-.36.02-.69.67-1.03,1.03.4.32.8.64,1.26,1.01-.78,2.01-.11,3.5,1.35,3.54-.2.94-.42,1.97-.78,3.66,2.17-1.4,3.62-2.33,5.51-3.55-3.47,3.64-6.63,6.83-9.62,10.16-.78.87-1.06,2.2-1.57,3.32l.6.31c2.4-1.66,4.8-3.33,7.2-4.99.15.15.29.31.44.46-.84.83-1.68,1.67-2.53,2.5-2.16,2.12-4.34,4.21-6.47,6.36-1.14,1.15-1.03,2.4-.07,3.65,1.21,1.58,2.33,3.23,3.61,4.74.31.37,1.12.49,1.68.45,5.04-.41,9.32-2.35,12.07-6.75,2.01-3.23,3.73-6.63,5.26-9.37.48,10.84-7.92,19.99-19.02,19.93-3.96-.02-6.94-1.6-9.37-4.82-8.35-11.07-2.2-29.08,9.83-34.11,8.61-3.61,18.39,2.48,19.1,12.06Zm-17.35-2.09c-4.69,2.91-5.97,4.94-4.67,7.73,1.02-2.93,5.22-3.57,4.67-7.73Zm-1.11-3.72c-4.48,2.88-5.36,3.95-4.62,6.14.93-2.65,4.99-2.18,4.62-6.14Zm-7.41,16.55c3.02-3.71,3.17-4.21,2-6.5-1.45,1.88-2.98,3.64-2,6.5Zm1.35-15.76l.79.79c3.06-.94,4.67-2.61,3.82-4.91-1.69,1.51-3.15,2.82-4.61,4.12Zm-1.01,18.43c3.09-1.91,3.48-2.67,2.52-4.38-.9,1.56-1.71,2.97-2.52,4.38Z"/>
      <path class="cls-3" d="m317.74,134.45c-2.17.89-4.34,1.78-6.6,2.71,1.15,2.34,2.01,4.11,3,6.13-2.25-.78-2.85.94-3.16,2.2-.37,1.53,2.83,4.81,3.88,4.8.19,1.11.38,2.14.56,3.16-.33-.24-.86-.61-1.74-1.24-1.97,2.84-4,5.63-5.84,8.54-.32.5.19,1.52.33,2.43,2.32-2.24,4.27-4.11,6.21-5.99.17.17.34.35.52.52-1.85,2.43-3.7,4.85-5.56,7.29,1.32,1.68,2.9,2.33,4.9,2.14,11.24-1.09,18.48-13.6,13.51-23.74-1.51-3.07-3.89-5.71-6.1-8.88,1.69,1.27,3.51,2.16,4.68,3.59,5.91,7.16,6.17,15.62.92,22.98-4.49,6.31-12.3,8.64-18.25,5.44-7.03-3.77-9.91-11.49-7.11-19.04,2.18-5.86,6.59-9.71,11.8-12.71,1.17-.67,2.83-.51,4.26-.73-.07.13-.14.25-.2.38Z"/>
      <path class="cls-3" d="m237.3,269.02c-11.37-8.25-14.78-19.38-5.68-31.56-1.88,5.51-3.86,10.92-3.36,16.96.54,6.51,5.23,10.22,9.05,14.59Z"/>
      <path class="cls-3" d="m214.01,297.36c1.2,10.9-1.27,20.34-10.74,26.96,6.86-7.68,10.83-16.51,10.74-26.96Z"/>
      <path class="cls-3" d="m317.88,173.46c-6.68,3.82-14.72,1.12-16.85-5.66,3.46,4.11,5.47,5.22,16.85,5.66Z"/>
      <path class="cls-3" d="m169.1,324.84c-10.23-.63-18.58-8.22-16.58-15.28,2.24,8.65,8.09,13.11,16.58,15.28Z"/>
      <path class="cls-3" d="m244.13,297.78c7.52-6.75,15.3-13.74,23.26-20.89-6.65,8.57-14.75,15.21-23.26,20.89Z"/>
      <path class="cls-3" d="m314.38,129.31c-2.37,1.74-4.75,3.47-7.1,5.22-2.31,1.72-4.59,3.46-6.88,5.2l1.02,1.03c.77-5.33,6.5-10.39,12.97-11.45Z"/>
      <path class="cls-3" d="m147.13,307.59c-.36,9.92,6.81,14.93,13.48,20.56-7.05-2.54-15.17-11.77-13.48-20.56Z"/>
      <path class="cls-3" d="m149.89,296.29c.91-7.87,10.39-14.05,19.11-16.12-8.25,3.11-15.2,7.77-19.11,16.12Z"/>
      <path class="cls-3" d="m332.68,168.59c3.09-7.03,3.65-14.43,3.18-21.99,1.58,7.72.9,15.11-3.18,21.99Z"/>
      <path class="cls-3" d="m242.54,309.93c7.78-5.02,15.56-10.05,23.35-15.07.11.17.21.33.32.5-7.77,5.04-15.54,10.08-23.32,15.12-.12-.18-.23-.36-.35-.55Z"/>
      <path class="cls-3" d="m159.42,281.65c3.6-5.19,12.93-5.7,20.57-4.18-2.26,0-4.53-.1-6.79.03-2.46.13-5.01.13-7.34.81-2.2.65-4.17,2.12-6.44,3.34Z"/>
      <path class="cls-3" d="m205.57,310.91c-2.13,6.33-6.19,10.87-12.48,13.36,5.06-3.62,9.58-7.74,12.48-13.36Z"/>
      <path class="cls-3" d="m231.94,250.13c.61-5.23,1.43-10.38,5.26-14.34-1.75,4.78-3.51,9.56-5.26,14.34Z"/>
      <path class="cls-3" d="m269.34,259.39c1.45-3.25,3.16-6.41,4.26-9.77,1.07-3.26,1.5-6.73,2.13-9.69.56,7.06-2.14,13.54-6.39,19.46Z"/>
      <path class="cls-3" d="m262.91,220.41c-5.65,1.98-11.14,3.91-16.21,5.68,2.14-2.09,10.31-5.1,16.21-5.68Z"/>
      <path class="cls-3" d="m294.8,166.24c-1.67-4.7-3.89-9.21-2-13.49.6,4.07,1.3,8.78,2,13.49Z"/>
      <path class="cls-3" d="m200.05,310.61c1.76-4.79,3.52-9.59,5.01-13.67-.65,4.36-1.66,9.41-5.06,13.63l.04.04Z"/>
      <path class="cls-3" d="m321.08,184.85c3.61-1.51,6.99-2.92,11.01-4.6-3.41,3.05-6.92,4.11-11.01,4.6Z"/>
      <path class="cls-3" d="m195.52,282.69c3.67,1.73,5.33,4.77,6.45,8.47-2.2-2.89-4.29-5.62-6.45-8.47Z"/>
      <path class="cls-3" d="m154.68,293.66c2.23-2.47,4.46-4.95,6.68-7.42.13.12.26.24.39.37-2.18,2.51-4.37,5.02-6.55,7.53-.17-.16-.35-.32-.52-.48Z"/>
      <path class="cls-3" d="m200.01,310.57c-1.48,1.91-2.89,3.89-4.46,5.72-.96,1.11-2.18,2-3.5,2.76,2.67-2.81,5.34-5.63,8.01-8.44,0,0-.04-.04-.04-.04Z"/>
      <path class="cls-3" d="m325.63,213.44c-1.43,2.87-2.86,5.74-4.29,8.6-.14-.07-.28-.14-.42-.21,1.44-2.86,2.88-5.71,4.32-8.57.13.06.26.11.4.17Z"/>
      <path class="cls-3" d="m330.62,175.65c-2.42,1.28-4.85,2.56-7.27,3.84-.08-.16-.16-.31-.24-.47,2.38-1.31,4.76-2.63,7.14-3.94.12.19.25.38.37.57Z"/>
      <path class="cls-3" d="m301.64,214.18c-1.46,2.48-2.92,4.95-4.38,7.42-.15-.09-.3-.18-.45-.26,1.48-2.45,2.97-4.9,4.47-7.35,0,0,.18.09.37.19Z"/>
      <path class="cls-3" d="m34.95,333.45c8.78-9.72,17.56-19.44,26.35-29.16-7.33,11.02-14.17,22.49-26.35,29.16Z"/>
      <path class="cls-3" d="m157.5,257.96c9.66-14.49,17.13-29.92,21.23-46.87-2.77,17.58-9.47,33.39-21.23,46.87Z"/>
      <path class="cls-3" d="m61.64,314.03c11.13-11.56,23.61-24.52,36-37.39-10.96,14.28-23.21,27.46-36,37.39Z"/>
      <path class="cls-3" d="m173.66,208.85c-4.08,11.82-7.7,23.86-14.54,34.51,4.85-11.5,9.69-23,14.54-34.51Z"/>
      <path class="cls-3" d="m115.99,199.22c10.34-6.84,21.91-11.43,33.36-16.28l.28.59c-11.23,5.24-22.47,10.48-33.64,15.69Z"/>
      <path class="cls-3" d="m138.62,203.41c-8.51,5.43-17.02,10.86-25.44,16.23,1.65-2.82,21.01-15.68,25.44-16.23Z"/>
      <path class="cls-3" d="m170.51,207.97c-2.87,10.72-7,20.93-12.59,30.55,4.2-10.18,8.39-20.37,12.59-30.55Z"/>
      <path class="cls-3" d="m87.05,251.34c8.03-7.69,16.05-15.38,24.08-23.07.17.18.35.36.52.54-8.01,7.71-16.02,15.41-24.03,23.12-.19-.2-.38-.39-.57-.59Z"/>
      <path class="cls-3" d="m90.63,264.24c-6.46,6.89-12.93,13.79-19.39,20.68,5.38-7.92,12.23-14.46,19.39-20.68Z"/>
      <path class="cls-3" d="m144.1,190.46c-5.91,3.48-11.83,6.96-17.74,10.44,5.23-4.67,11.08-8.34,17.74-10.44Z"/>
      <path class="cls-3" d="m102.53,282.96c-3.69,3.69-7.38,7.38-11.07,11.06-.25-.25-.5-.5-.75-.75,3.92-3.47,7.84-6.94,11.77-10.4.02.03.03.06.05.09Z"/>
      <path class="cls-3" d="m279.89,111.3c-.06-1.79-.92-.97-1.65-.5-4.19,2.7-8.79,4.16-13.76,4.38-16.61.74-30.27-12.59-29.81-29.07.46-16.48,14.82-29.06,31.34-27.44,21.36,2.09,32.67,27.05,20.13,44.53-1.43,1.99-3.36,3.6-4.94,5.49-.61.73-.89,1.73-1.32,2.61,0,0,0,0,0,0Zm-17.02-1.2c12.87.04,23.35-10.23,23.44-22.98.09-12.87-10.41-23.49-23.22-23.47-12.84.02-23.31,10.41-23.3,23.12,0,12.86,10.33,23.29,23.08,23.33Z"/>
      <path class="cls-3" d="m262.84,106.23c-11-.38-19.46-9.17-19.12-19.86.34-10.69,9.38-19.22,19.93-18.82,10.62.4,19.1,9.34,18.76,19.77-.35,10.66-9.26,19.27-19.57,18.92Zm-1.2-12.9c1.37.17,2.74.36,4.12.52,1.99.23,4.19,1.39,5.42-1.34.36.79.66,1.46,1.04,2.3,1.33-2.07,2.53-3.94,3.73-5.82l.25.14c-.28,1.12-.55,2.24-.86,3.47,2.77-1.16,3.27-3.49,3.39-5.83.41-7.97-6.48-15.32-14.58-15.73-4.44-.22-8.21.63-10.01,5.42-.67,1.77-1.98,3.29-2.74,5.04-1.08,2.47-1.91,5.04-2.85,7.57.24.11.49.23.73.34.88-1.42,1.77-2.83,2.65-4.25.12.06.24.12.36.18-.52,1.37-1.04,2.74-1.8,4.74.89-.77,1.24-1.08,1.75-1.51-.13.85-.22,1.42-.4,2.65.92-1.6,1.5-2.61,2.08-3.62.1.04.2.08.3.11-.13.75-.27,1.5-.38,2.14.78.13,1.55.26,2.32.4-.68,1.56-1.55,3.13.34,5.26.56-1.56.98-2.72,1.4-3.88,1.26.58,2.53,1.15,3.78,1.71-3.1-.86-3.33-.73-4.43,2.74,2.17.04,3.06-1.75,4.4-2.76Z"/>
    </g>
  </g>
</svg>